<?xml version="1.0" standalone="no"?>
<!DOCTYPE svg PUBLIC "-//W3C//DTD SVG 20010904//EN"
 "http://www.w3.org/TR/2001/REC-SVG-20010904/DTD/svg10.dtd">
<svg version="1.0" xmlns="http://www.w3.org/2000/svg"
 width="100.000000pt" height="100.000000pt" viewBox="0 0 100.000000 100.000000"
 preserveAspectRatio="xMidYMid meet">
<metadata>
Created by potrace 1.11, written by Peter Selinger 2001-2013
</metadata>
<g transform="translate(0.000000,100.000000) scale(0.100000,-0.100000)"
fill="#000000" stroke="none">
<path d="M0 500 l0 -500 500 0 500 0 0 500 0 500 -500 0 -500 0 0 -500z m464
355 c-4 -8 -11 -15 -16 -15 -6 0 -5 6 2 15 7 8 14 15 16 15 2 0 1 -7 -2 -15z
m116 -32 c0 -20 -3 -24 -11 -16 -7 7 -9 19 -6 27 10 24 17 19 17 -11z m-171
-95 c-6 -47 13 -63 36 -31 11 15 16 13 49 -21 l36 -38 -31 6 c-25 5 -28 3 -17
-7 7 -7 21 -16 31 -20 22 -8 22 -33 0 -41 -14 -6 -15 -9 -4 -15 9 -6 10 -11 2
-15 -6 -4 -9 -17 -5 -30 3 -14 -3 -32 -17 -50 -21 -27 -25 -28 -90 -24 -84 4
-102 18 -71 51 29 31 28 35 -10 39 l-33 3 3 57 c1 31 8 74 15 95 10 32 17 39
47 44 56 10 61 10 59 -3z m-148 -32 c13 8 12 2 -11 -50 -22 -52 -33 -56 -56
-21 -18 28 -13 55 11 55 9 0 14 4 10 9 -3 5 3 11 12 13 10 2 20 0 21 -4 2 -5
8 -6 13 -2z"/>
</g>
</svg>
